<?xml version="1.0" encoding="UTF-8"?>
<svg id="Layer_1" data-name="Layer 1" xmlns="http://www.w3.org/2000/svg" viewBox="0 0 161.44 159.49">
  <defs>
    <style>
      .cls-1 {
        fill: #fff;
        fill-rule: evenodd;
      }
    </style>
  </defs>
  <g id="Layer_2" data-name="Layer 2">
    <g id="Layer_1-2" data-name="Layer 1-2">
      <g id="Logo2-Copy-3">
        <g id="Group-34">
          <path class="cls-1" d="M149.31,10.19c-14.74-14.74-41.61-13-69.6,2.11-4.18,2.25-3.87,11.49.09,13.91,21.74,13.45,40.04,31.78,53.46,53.54,2.41,4,11.75,4.1,13.94,0-.52-1-1-1.91-1.59-2.86.54.95,1.07,1.91,1.59,2.86,15.09-27.95,16.85-54.82,2.11-69.56ZM118.16,41.34c-7.99-8.05-16.76-15.3-26.16-21.64,10.84-5,21.17-7.7,29.91-7.7,7.82,0,14.38,2.14,18.93,6.69,9.65,9.65,8.5,28.33-1,48.85-6.37-9.41-13.63-18.19-21.68-26.2Z"/>
          <path class="cls-1" d="M155.82,100c-2.23-6.99-5.12-13.75-8.62-20.19h0c-2.22-4.11-11.54-4-13.94,0-6.65,10.88-14.58,20.91-23.62,29.9-8.97,9.02-18.99,16.94-29.84,23.58-4,2.41-4.14,11.73-.09,13.9,14.9,8,29.48,12.3,42.09,12.3,11.07,0,20.62-3.28,27.51-10.17,10.79-10.79,13.09-28.32,6.51-49.32ZM140.82,140.82c-9.65,9.65-28.32,8.5-48.84-1,9.42-6.35,18.19-13.6,26.2-21.65,8.03-8.01,15.28-16.77,21.63-26.17,9.49,20.51,10.64,39.16.99,48.8l.02.02Z"/>
          <path class="cls-1" d="M79.71,12.3c-6.44-3.51-13.21-6.4-20.2-8.62C38.49-2.9,21-.6,10.18,10.19,3.29,17.08,0,26.63,0,37.7c0,12.61,4.27,27.2,12.3,42.1,2.18,4,11.5,3.87,13.91-.1,13.45-21.76,31.8-40.08,53.59-53.49,3.93-2.39,4.01-11.71-.09-13.91ZM19.71,67.54c-9.51-20.54-10.66-39.2-1.01-48.85,7.45-7.46,20.67-8.71,37.22-3.52,3.96,1.25,7.84,2.75,11.61,4.5-18.82,12.79-35.05,29.04-47.83,47.87h0Z"/>
          <path class="cls-1" d="M79.8,133.29c-10.9-6.65-20.95-14.59-29.95-23.64-9.05-9-16.99-19.05-23.64-29.95-2.4-3.93-11.71-4-13.91.1-3.51,6.45-6.39,13.21-8.62,20.2-6.59,21-4.28,38.55,6.5,49.34,6.76,6.75,16.16,10.18,27.41,10.18,7.45-.11,14.84-1.35,21.92-3.68,6.99-2.23,13.75-5.12,20.2-8.63,3.29-1.76,4.02-11.53.09-13.92ZM55.92,144.34c-16.55,5.18-29.77,3.92-37.22-3.54-7.45-7.46-8.7-20.68-3.54-37.22,1.25-3.95,2.76-7.82,4.5-11.58,6.37,9.4,13.63,18.17,21.69,26.17,8,8.06,16.77,15.32,26.18,21.68-3.77,1.74-7.65,3.24-11.61,4.49Z"/>
          <g id="Path">
            <polygon class="cls-1" points="52.89 79.02 79.75 36.82 106.61 79.02 79.75 94.37 52.89 79.02"/>
          </g>
          <polygon class="cls-1" points="52.89 86.23 79.75 101.58 106.61 86.23 79.75 122.68 52.89 86.23"/>
          <path class="cls-1" d="M92,19.7c-4.18,1.94-8.26,4.12-12.2,6.51-3.96-2.42-8.06-4.6-12.27-6.54,3.93-2.66,8-5.12,12.18-7.37,4.1,2.2,8.2,4.67,12.29,7.4Z"/>
          <path class="cls-1" d="M147.2,79.79c-2.19,4.06-4.65,8.13-7.39,12.21-1.96-4.2-4.14-8.29-6.55-12.25,2.4-3.95,4.58-8.03,6.54-12.21,2.72,4.05,5.19,8.14,7.4,12.25Z"/>
          <path class="cls-1" d="M92,139.8c-.84.57-1.69,1.12-2.53,1.67-3.22,2.07-6.47,4-9.72,5.72-4.05-2.17-8.11-4.62-12.18-7.36,4.21-1.94,8.31-4.13,12.27-6.54,3.93,2.39,7.99,4.57,12.16,6.51Z"/>
          <path class="cls-1" d="M26.21,79.7c-2.41,3.97-4.6,8.08-6.55,12.3-2.73-4.06-5.19-8.12-7.36-12.18,2.26-4.21,4.73-8.3,7.4-12.26,1.94,4.17,4.11,8.22,6.51,12.14Z"/>
        </g>
      </g>
    </g>
  </g>
</svg>