<svg xmlns="http://www.w3.org/2000/svg" width="680" height="680" viewBox="0 0 680 680" fill="none">

  <!-- TronicLens Logo — Transparent Version -->
  
  <!-- Outer subtle ring -->
  <circle cx="340" cy="340" r="240" fill="none" stroke="#38bdf8" stroke-width="0.8" opacity="0.12"/>
  
  <!-- Lens outer ring -->
  <circle cx="340" cy="340" r="200" fill="none" stroke="#38bdf8" stroke-width="14" opacity="0.12"/>
  <circle cx="340" cy="340" r="200" fill="none" stroke="#38bdf8" stroke-width="3" opacity="0.9"/>
  <circle cx="340" cy="340" r="178" fill="none" stroke="#38bdf8" stroke-width="1" opacity="0.35"/>

  <!-- Lens tick marks -->
  <g transform="translate(340,340)">
    <line x1="0" y1="-178" x2="0" y2="-160" stroke="#38bdf8" stroke-width="2" opacity="0.7"/>
    <line x1="0" y1="160" x2="0" y2="178" stroke="#38bdf8" stroke-width="2" opacity="0.7"/>
    <line x1="-178" y1="0" x2="-160" y2="0" stroke="#38bdf8" stroke-width="2" opacity="0.7"/>
    <line x1="160" y1="0" x2="178" y2="0" stroke="#38bdf8" stroke-width="2" opacity="0.7"/>
    <line x1="-126" y1="-126" x2="-113" y2="-113" stroke="#38bdf8" stroke-width="1.5" opacity="0.5"/>
    <line x1="113" y1="113" x2="126" y2="126" stroke="#38bdf8" stroke-width="1.5" opacity="0.5"/>
    <line x1="126" y1="-126" x2="113" y2="-113" stroke="#38bdf8" stroke-width="1.5" opacity="0.5"/>
    <line x1="-113" y1="113" x2="-126" y2="126" stroke="#38bdf8" stroke-width="1.5" opacity="0.5"/>
  </g>

  <!-- Chain connections between hexagons -->
  <line x1="340" y1="202" x2="460" y2="271" stroke="#38bdf8" stroke-width="1.5" opacity="0.45"/>
  <line x1="460" y1="271" x2="460" y2="409" stroke="#38bdf8" stroke-width="1.5" opacity="0.45"/>
  <line x1="460" y1="409" x2="340" y2="478" stroke="#38bdf8" stroke-width="1.5" opacity="0.45"/>
  <line x1="340" y1="478" x2="220" y2="409" stroke="#38bdf8" stroke-width="1.5" opacity="0.45"/>
  <line x1="220" y1="409" x2="220" y2="271" stroke="#38bdf8" stroke-width="1.5" opacity="0.45"/>
  <line x1="220" y1="271" x2="340" y2="202" stroke="#38bdf8" stroke-width="1.5" opacity="0.45"/>

  <!-- Neural lines from center -->
  <line x1="340" y1="340" x2="340" y2="202" stroke="#38bdf8" stroke-width="1.2" opacity="0.5"/>
  <line x1="340" y1="340" x2="460" y2="271" stroke="#38bdf8" stroke-width="1.2" opacity="0.5"/>
  <line x1="340" y1="340" x2="460" y2="409" stroke="#38bdf8" stroke-width="1.2" opacity="0.5"/>
  <line x1="340" y1="340" x2="340" y2="478" stroke="#38bdf8" stroke-width="1.2" opacity="0.5"/>
  <line x1="340" y1="340" x2="220" y2="409" stroke="#38bdf8" stroke-width="1.2" opacity="0.5"/>
  <line x1="340" y1="340" x2="220" y2="271" stroke="#38bdf8" stroke-width="1.2" opacity="0.5"/>

  <!-- Hexagons -->
  <polygon points="340,180 359,191 359,213 340,224 321,213 321,191" fill="transparent" stroke="#38bdf8" stroke-width="2" opacity="0.95"/>
  <polygon points="460,249 479,260 479,282 460,293 441,282 441,260" fill="transparent" stroke="#38bdf8" stroke-width="2" opacity="0.95"/>
  <polygon points="460,387 479,398 479,420 460,431 441,420 441,398" fill="transparent" stroke="#38bdf8" stroke-width="2" opacity="0.95"/>
  <polygon points="340,456 359,467 359,489 340,500 321,489 321,467" fill="transparent" stroke="#38bdf8" stroke-width="2" opacity="0.95"/>
  <polygon points="220,387 239,398 239,420 220,431 201,420 201,398" fill="transparent" stroke="#38bdf8" stroke-width="2" opacity="0.95"/>
  <polygon points="220,249 239,260 239,282 220,293 201,282 201,260" fill="transparent" stroke="#38bdf8" stroke-width="2" opacity="0.95"/>

  <!-- Hex center dots -->
  <circle cx="340" cy="202" r="4" fill="#38bdf8" opacity="0.9"/>
  <circle cx="460" cy="271" r="4" fill="#38bdf8" opacity="0.9"/>
  <circle cx="460" cy="409" r="4" fill="#38bdf8" opacity="0.9"/>
  <circle cx="340" cy="478" r="4" fill="#38bdf8" opacity="0.9"/>
  <circle cx="220" cy="409" r="4" fill="#38bdf8" opacity="0.9"/>
  <circle cx="220" cy="271" r="4" fill="#38bdf8" opacity="0.9"/>

  <!-- Central AI node -->
  <circle cx="340" cy="340" r="30" fill="transparent" stroke="#38bdf8" stroke-width="2.5"/>
  <circle cx="340" cy="340" r="12" fill="#38bdf8" opacity="0.95"/>
  <circle cx="340" cy="340" r="5" fill="transparent" stroke="#38bdf8" stroke-width="1.5"/>

</svg>